#!OML:ASF X:\für Bonn\!DataBase\2005_08_10_Bjorn_Final\c3d\bjorn.ASF
:FULLY-SPECIFIED
:DEGREES
237
root 0.270151 4.09619 20.5704 -422.279 -168.568 -2.91102
lowerback 48.4717 7.65526 12.2344
upperback 25.5202 2.47866 1.68245
thorax 9.44292 -2.90531 -5.37312
lowerneck 2.06676 3.449 5.47154
upperneck -1.04612 4.65989 -6.00302
head -0.399585 2.35708 -2.89797
rclavicle -7.53394e-014 9.93923e-015
rhumerus -226.119 -152.501 92.646
rradius 28.7874
rwrist -51.2674
rhand -18.4979 -11.4775
rfingers 7.12502
rthumb 7.78983 -41.314
lclavicle -7.53394e-014 9.93923e-015
lhumerus -385.274 31.699 -299.504
lradius 11.1027
lwrist -28.7965
lhand -20.0663 -3.50569
lfingers 7.12502
lthumb 6.27584 26.3813
rfemur -259.116 -145.508 193.639
rtibia 118.965
rfoot 14.0496 12.338
rtoes -16.2798
lfemur -67.8956 45.1656 -2.99775
ltibia 145.323
lfoot -3.66748 -42.1378
ltoes 3.6345
238
root 0.239017 4.03806 20.5608 -422.397 -168.519 -2.94134
lowerback 48.5253 7.79759 11.9806
upperback 25.6627 2.42788 1.7174
thorax 9.56795 -3.01397 -5.22395
lowerneck 2.2533 3.55147 5.36725
upperneck -1.55168 4.78605 -5.99841
head -0.587119 2.42369 -2.8907
rclavicle -2.68359e-014 4.21423e-014
rhumerus -226.054 -153.57 92.232
rradius 29.3358
rwrist -51.9181
rhand -18.5148 -11.6914
rfingers 7.12502
rthumb 7.77345 -41.5285
lclavicle -2.68359e-014 4.21423e-014
lhumerus -384.752 28.043 -298.452
lradius 11.4225
lwrist -25.4381
lhand -19.7851 -3.22125
lfingers 7.12502
lthumb 6.54732 26.6575
rfemur -259.141 -145.369 193.693
rtibia 118.807
rfoot 14.764 11.6419
rtoes -16.9567
lfemur -68.344 46.1409 -3.21071
ltibia 145.661
lfoot -3.4699 -42.1822
ltoes 3.55967
239
root 0.207176 3.98151 20.5542 -422.506 -168.463 -2.99482
lowerback 48.6278 7.92547 11.7294
upperback 25.7582 2.3855 1.72371
thorax 9.63125 -3.11119 -5.10243
lowerneck 2.56523 3.64687 5.35907
upperneck -2.12264 4.90696 -6.04993
head -0.814842 2.4893 -2.92654
rclavicle -6.16232e-014 3.57812e-015
rhumerus -226.119 -154.56 91.8985
rradius 29.9007
rwrist -52.494
rhand -18.4268 -11.9153
rfingers 7.12502
rthumb 7.85844 -41.7493
lclavicle -6.16232e-014 3.57812e-015
lhumerus -384.492 24.3446 -297.565
lradius 11.8431
lwrist -22.0414
lhand -19.4894 -2.9363
lfingers 7.12502
lthumb 6.83278 26.9334
rfemur -259.214 -145.205 193.69
rtibia 118.757
rfoot 15.4012 11.1117
rtoes -17.7045
lfemur -68.8072 46.9604 -3.52543
ltibia 145.971
lfoot -3.17617 -42.1747
ltoes 3.64568
240
root 0.176598 3.92518 20.5496 -422.607 -168.421 -3.0587
lowerback 48.7259 8.07075 11.4584
upperback 25.8588 2.34954 1.7516
thorax 9.69956 -3.21326 -4.951
lowerneck 2.88561 3.75697 5.35919
upperneck -2.66914 5.04812 -6.10376
head -1.03579 2.56487 -2.96662
rclavicle 2.94201e-014 -3.26007e-014
rhumerus -226.216 -155.574 91.5781
rradius 30.5133
rwrist -53.0405
rhand -18.3879 -12.1414
rfingers 7.12502
rthumb 7.89599 -41.9739
lclavicle 2.94201e-014 -3.26007e-014
lhumerus -384.435 20.6962 -296.752
lradius 12.3485
lwrist -18.6895
lhand -19.27 -2.69633
lfingers 7.12502
lthumb 7.04453 27.1664
rfemur -259.31 -145.046 193.625
rtibia 118.789
rfoot 16.082 10.5906
rtoes -17.6277
lfemur -69.3153 47.7286 -3.88905
ltibia 146.273
lfoot -2.82191 -42.1394
ltoes 3.74411
241
root 0.144732 3.86726 20.5433 -422.697 -168.373 -3.12775
lowerback 48.8365 8.19864 11.2099
upperback 25.9462 2.30883 1.75632
thorax 9.75419 -3.30992 -4.83206
lowerneck 3.28052 3.88603 5.42035
upperneck -3.23724 5.21999 -6.15593
head -1.27487 2.65594 -3.02276
rclavicle 2.32578e-014 -3.37934e-014
rhumerus -226.358 -156.547 91.2759
rradius 31.1448
rwrist -53.6255
rhand -18.3942 -12.3459
rfingers 7.12502
rthumb 7.88987 -42.1786
lclavicle 2.32578e-014 -3.37934e-014
lhumerus -384.522 17.1509 -296.064
lradius 12.887
lwrist -15.4586
lhand -19.1126 -2.50174
lfingers 7.12502
lthumb 7.19644 27.3559
rfemur -259.442 -144.839 193.519
rtibia 118.894
rfoot 16.7322 10.1575
rtoes -17.2317
lfemur -69.8749 48.4419 -4.32229
ltibia 146.578
lfoot -2.39084 -42.0864
ltoes 3.96258
242
root 0.113082 3.80962 20.5366 -422.77 -168.339 -3.20991
lowerback 48.9569 8.32207 10.9917
upperback 26.0166 2.28669 1.7429
thorax 9.79338 -3.38717 -4.74921
lowerneck 3.69169 4.00348 5.52928
upperneck -3.74893 5.38205 -6.21124
head -1.49964 2.74141 -3.09034
rclavicle -2.26615e-014 8.74653e-015
rhumerus -226.555 -157.457 90.9817
rradius 31.8204
rwrist -54.1796
rhand -18.3635 -12.6094
rfingers 7.12502
rthumb 7.91948 -42.4411
lclavicle -2.26615e-014 8.74653e-015
lhumerus -384.791 13.542 -295.432
lradius 13.5537
lwrist -12.2647
lhand -19.0128 -2.3118
lfingers 7.12502
lthumb 7.29283 27.5425
rfemur -259.611 -144.635 193.403
rtibia 119.056
rfoot 17.4427 9.74239
rtoes -16.4501
lfemur -70.4422 49.1871 -4.75729
ltibia 146.882
lfoot -1.84999 -42.0355
ltoes 4.45601
